<svg id="Layer_1" data-name="Layer 1" xmlns="http://www.w3.org/2000/svg" viewBox="0 0 1080 1080"><defs><style>.cls-1{fill:#ff6b00;}</style></defs><path class="cls-1" d="M366.51,377.51a25.73,25.73,0,0,0-19.54-9H269.9V711.47h66.22V445.62L495.54,631.23l-68.9,80.23h77.05a25.8,25.8,0,0,0,19.57-9L540,683l44.46-51.76L540,579.49Z"/><path class="cls-1" d="M810.1,368.53H733a25.73,25.73,0,0,0-19.54,9L618.38,488.24,523.26,377.51a25.84,25.84,0,0,0-19.57-9H426.64L573.92,540l44.46,51.76,95.11,110.73a25.69,25.69,0,0,0,19.54,9H810.1L662.82,540Z"/></svg>
