<svg id="Layer_1" data-name="Layer 1" xmlns="http://www.w3.org/2000/svg" viewBox="0 0 1350 450"><defs><style>.cls-1{fill:#ff6b00;}</style></defs><polygon points="434.68 227.21 385.44 152.65 363.69 152.65 363.69 261.23 385.44 261.23 385.44 186.83 434.68 261.23 456.43 261.23 456.43 152.65 434.68 152.65 434.68 227.21"/><path d="M527.57,234.2q-5.13,10.41-17.24,10.41a20.11,20.11,0,0,1-14.14-5.28q-5.74-5.28-6.52-14.6h62.91a51.84,51.84,0,0,0,.62-8.39,45.38,45.38,0,0,0-5.36-22.29,37.18,37.18,0,0,0-15.07-15,48.9,48.9,0,0,0-44.5.15,38,38,0,0,0-15.22,15.54q-5.44,10.09-5.44,23.45a47.88,47.88,0,0,0,5.51,23.3,38.72,38.72,0,0,0,15.38,15.61,44.88,44.88,0,0,0,22.29,5.52q15.37,0,25.94-8A39.15,39.15,0,0,0,551,234.2Zm-31-37.67a19.74,19.74,0,0,1,13.59-4.89,21.5,21.5,0,0,1,14.45,5.05,17.29,17.29,0,0,1,6.06,13.44H489.82Q491.06,201.43,496.58,196.53Z"/><path d="M679,152.65,640,261.23h22.83L670,240.57h43.19l7.14,20.66h23l-39-108.58Zm-3.1,70.52,15.69-45.35,15.68,45.35Z"/><path d="M815.38,187.45a31.12,31.12,0,0,0-11.49-9.87,36.21,36.21,0,0,0-16.93-3.8,37.64,37.64,0,0,0-20,5.43,38.18,38.18,0,0,0-14.14,15.54,49.77,49.77,0,0,0-5.2,23.14,50.6,50.6,0,0,0,5.2,23.38A39,39,0,0,0,767.08,257,37,37,0,0,0,787,262.63a34.56,34.56,0,0,0,16.85-4,32.93,32.93,0,0,0,11.57-10.1v13.36q0,11.49-5.9,17.17t-15.38,5.67a25.67,25.67,0,0,1-13.74-3.5,16.07,16.07,0,0,1-7.38-9.4H751.39a31.63,31.63,0,0,0,13.28,23.3q11.73,8.55,30.05,8.55,13.68,0,23.3-5.52a35.81,35.81,0,0,0,14.45-14.91,46.2,46.2,0,0,0,4.82-21.36V175.18H815.38Zm-3.1,44.34a21.92,21.92,0,0,1-8.39,8.7,22.41,22.41,0,0,1-11.34,3,21.31,21.31,0,0,1-11.11-3.1,22.92,22.92,0,0,1-8.38-8.94,27.8,27.8,0,0,1-3.19-13.59,26.93,26.93,0,0,1,3.19-13.43,22.36,22.36,0,0,1,30.83-8.55,22,22,0,0,1,8.39,8.7,31.34,31.34,0,0,1,0,27.18Z"/><path d="M913.47,179.06a48.9,48.9,0,0,0-44.5.15,38,38,0,0,0-15.22,15.54q-5.44,10.09-5.44,23.45a47.77,47.77,0,0,0,5.52,23.3,38.69,38.69,0,0,0,15.37,15.61,44.89,44.89,0,0,0,22.3,5.52q15.38,0,25.94-8a39.21,39.21,0,0,0,14.29-20.43H908.27q-5.13,10.41-17.24,10.41a20.13,20.13,0,0,1-14.14-5.28q-5.75-5.28-6.52-14.6h62.91a51.84,51.84,0,0,0,.62-8.39,45.38,45.38,0,0,0-5.36-22.29A37.12,37.12,0,0,0,913.47,179.06Zm-42.94,31.07q1.23-8.7,6.75-13.6a19.76,19.76,0,0,1,13.59-4.89,21.5,21.5,0,0,1,14.45,5.05,17.29,17.29,0,0,1,6.06,13.44Z"/><path d="M992.77,173.93a34.35,34.35,0,0,0-14.83,3.19,30.05,30.05,0,0,0-11.11,8.77V175.18H945.08v86.05h21.75V213.7q0-10.26,5.2-15.77t14.22-5.51q8.85,0,14,5.51t5.12,15.77v47.53h21.75V210.75q0-17.4-9.48-27.11T992.77,173.93Z"/><path d="M1079.91,192.26a18.28,18.28,0,0,1,10.95,3.19,17.11,17.11,0,0,1,6.29,8.77h23.46q-3.58-14.44-14.06-22.44t-26.48-8a43.65,43.65,0,0,0-22.06,5.51,38.88,38.88,0,0,0-15.07,15.54q-5.45,10-5.44,23.37t5.44,23.38A38.79,38.79,0,0,0,1058,257.11a43.55,43.55,0,0,0,22.06,5.52q15.84,0,26.4-8.23t14.14-22.22h-23.46q-4,11.81-17.24,11.81-9.32,0-14.76-6.76t-5.43-19q0-12.42,5.43-19.18T1079.91,192.26Z"/><polygon points="1191.13 175.18 1168.6 235.29 1146.39 175.18 1122 175.18 1156.49 259.06 1137.85 301.93 1160.99 301.93 1214.27 175.18 1191.13 175.18"/><polygon class="cls-1" points="568.62 233.91 594.04 233.91 573.15 261.23 548.06 261.23 568.62 233.91"/><polygon points="606.86 217.15 640.01 261.23 614.93 261.23 594.04 233.91 581.23 217.15 548.06 173.78 574.23 173.78 594.04 200.12 613.86 173.78 640.01 173.78 606.86 217.15"/><path class="cls-1" d="M169.86,149.54a9.12,9.12,0,0,0-6.9-3.18H135.73V267.52h23.39V173.6l56.32,65.57L191.1,267.52h27.22a9.09,9.09,0,0,0,6.91-3.18l5.92-6.88,15.7-18.29-15.7-18.28Z"/><path class="cls-1" d="M326.57,146.36H299.34a9.09,9.09,0,0,0-6.9,3.18l-33.6,39.11-33.61-39.11a9.12,9.12,0,0,0-6.91-3.18H191.1l52,60.58,15.71,18.29,33.6,39.11a9.05,9.05,0,0,0,6.9,3.18h27.23l-52-60.58Z"/></svg>
